# xmcd CD database file
#
# Track frame offsets:
#	150
#	7583
#	30535
#	48930
#	65862
#	79792
#	99494
#	116864
#	129424
#	149621
#	180088
#	195365
#	210189
#	225015
#	233293
#	253701
#	268325
#	282541
#
# Disc length: 4058 seconds
#
# Revision: 0
# Processed by: cddbd v1.5.1PL0 Copyright (c) Steve Scherf et al.
# Submitted via: CDex 1.51
#
DISCID=e60fd812
DTITLE=The original brothers - Eigth lives left
DYEAR=1997
DGENRE=Blues
TTITLE0=Soulfinger
TTITLE1=Party Shuffle
TTITLE2=Howlin' for my darling
TTITLE3=Knock on wood
TTITLE4=Soulman
TTITLE5=Gimme some lovin
TTITLE6=Everybody needs somebody to love
TTITLE7=Ring of fire
TTITLE8=You can's leave your hat on
TTITLE9=Sweet home chicago
TTITLE10=Jailhouse rock
TTITLE11=Riot in cellblock number nine
TTITLE12=Louie louie II
TTITLE13=Thank you
TTITLE14=Lovin you
TTITLE15=Live in harmony 
TTITLE16=Born to be wild
TTITLE17=I won't cry
EXTD=YEAR: 1997
EXTT0=
EXTT1=
EXTT2=
EXTT3=
EXTT4=
EXTT5=
EXTT6=
EXTT7=
EXTT8=
EXTT9=
EXTT10=
EXTT11=
EXTT12=
EXTT13=
EXTT14=
EXTT15=
EXTT16=
EXTT17=
PLAYORDER=
